<?xml version="1.0" standalone="no"?>
<!DOCTYPE svg PUBLIC "-//W3C//DTD SVG 20010904//EN"
 "http://www.w3.org/TR/2001/REC-SVG-20010904/DTD/svg10.dtd">
<svg version="1.0" xmlns="http://www.w3.org/2000/svg"
 width="537.000000pt" height="537.000000pt" viewBox="0 0 537.000000 537.000000"
 preserveAspectRatio="xMidYMid meet">
<metadata>
Created by potrace 1.11, written by Peter Selinger 2001-2013
</metadata>
<g transform="translate(0.000000,537.000000) scale(0.100000,-0.100000)"
fill="#000000" stroke="none">
<path d="M3912 5228 c-15 -15 -16 -55 -1 -64 8 -4 8 -9 0 -17 -13 -13 -15 -54
-2 -61 8 -5 5 -717 -4 -761 -2 -11 -4 -23 -4 -26 -1 -3 -36 2 -78 13 -167 40
-473 18 -673 -50 -59 -20 -98 -27 -127 -24 -36 3 -46 0 -67 -23 -13 -14 -30
-49 -37 -76 -7 -27 -21 -57 -30 -65 -17 -15 -17 -19 7 -73 24 -52 25 -60 14
-112 -11 -51 -10 -61 9 -104 28 -63 27 -71 -15 -141 -60 -98 -68 -122 -49
-150 11 -17 25 -24 46 -24 29 0 30 -2 24 -29 -4 -18 -1 -40 8 -58 15 -27 14
-28 -48 -89 -52 -51 -74 -84 -127 -190 -35 -71 -72 -148 -81 -171 -15 -40 -19
-42 -74 -52 -265 -50 -436 -110 -516 -181 -21 -18 -39 -31 -42 -29 -2 3 7 31
20 63 25 62 25 76 -3 76 -73 0 -154 -60 -222 -165 -23 -36 -44 -65 -46 -65 -7
0 19 58 67 146 27 50 49 96 49 102 0 15 -76 42 -120 42 -22 0 -40 4 -40 9 0 5
-13 23 -29 40 -41 44 -71 41 -115 -11 l-36 -42 6 31 c6 30 4 32 -32 42 -79 21
-492 109 -568 122 -77 12 -80 12 -97 -10 l-17 -21 -29 41 c-44 66 -67 77 -183
93 -58 8 -125 21 -149 30 -71 26 -112 21 -149 -17 -36 -37 -42 -79 -15 -109
15 -17 15 -19 -2 -38 -14 -15 -17 -31 -13 -70 4 -35 1 -53 -8 -61 -17 -14 -18
-41 -3 -56 8 -8 8 -17 -1 -33 -25 -47 4 -80 83 -95 l35 -7 6 -70 c4 -38 14
-90 21 -115 12 -40 12 -48 -2 -69 -9 -15 -13 -34 -9 -49 5 -20 3 -25 -11 -25
-32 0 -91 -20 -114 -39 -21 -16 -22 -21 -9 -36 7 -9 31 -25 52 -36 42 -21 50
-39 18 -39 -12 0 -28 -12 -37 -29 -12 -21 -30 -31 -65 -41 -100 -25 -131 -82
-162 -292 -24 -161 -41 -561 -26 -599 17 -40 55 -68 103 -76 l39 -6 -4 -79 -5
-78 41 -12 c50 -15 437 -16 481 -1 30 10 30 10 27 79 -1 38 1 74 5 79 4 6 27
16 50 23 24 7 53 26 69 45 l27 32 -6 205 c-4 113 -14 263 -22 333 -31 266 -64
329 -186 352 -27 5 -38 14 -46 36 -9 22 -18 29 -37 29 -40 0 -31 17 24 45 28
14 50 31 50 39 0 23 -34 45 -88 57 -49 12 -52 14 -52 44 0 17 -6 40 -14 50
-11 15 -11 26 0 60 7 23 15 67 19 97 l7 55 112 7 c155 10 163 7 171 -57 104
-941 135 -1273 159 -1699 12 -214 18 -264 34 -302 23 -51 56 -67 99 -47 23 10
29 9 52 -13 62 -59 111 -52 137 22 17 49 19 49 53 45 23 -3 55 3 87 15 l52 21
42 -21 c41 -21 43 -21 56 -3 8 10 21 39 30 64 9 25 19 55 24 66 6 15 24 24 71
34 67 13 235 78 307 118 23 13 42 21 42 17 0 -21 -127 -287 -282 -592 l-179
-352 58 0 58 0 74 163 c153 332 235 516 301 675 l67 163 66 45 c37 24 68 44
70 44 3 0 4 12 -23 -285 -29 -308 -75 -616 -116 -779 l-6 -26 1517 0 c1441 0
1517 1 1512 18 -3 9 -38 110 -77 223 l-71 205 34 57 c77 128 156 481 157 699
0 112 -29 196 -160 465 -158 325 -358 672 -485 843 -70 94 -194 219 -267 269
-45 30 -48 34 -48 77 0 47 -19 94 -51 130 -18 19 -18 22 -3 54 16 32 16 35 -5
76 -18 33 -20 46 -12 62 26 49 2 153 -72 306 l-52 109 2 476 c3 560 14 840 37
872 11 16 12 27 5 41 -6 12 -6 25 1 38 7 14 8 26 0 39 -7 13 -7 22 0 26 13 8
13 48 -1 62 -8 8 -8 13 0 17 15 9 14 49 -1 64 -8 8 -49 12 -118 12 -69 0 -110
-4 -118 -12z m-3396 -2529 l44 -11 -6 -52 c-4 -28 -12 -71 -18 -96 -9 -38 -15
-45 -36 -45 -21 0 -26 6 -36 52 -6 28 -15 77 -18 107 -8 64 -7 64 70 45z m20
-264 c9 -37 -2 -55 -35 -55 -32 0 -47 30 -30 62 15 28 57 23 65 -7z m-220
-370 c-11 -8 -23 -15 -28 -15 -4 0 -8 -7 -8 -15 0 -10 10 -15 34 -15 46 0 63
-22 45 -58 -7 -15 -13 -34 -14 -42 -1 -36 -71 -240 -82 -240 -14 0 -18 -22 -6
-33 3 -4 5 -38 4 -77 -2 -69 20 -147 47 -164 6 -4 9 -12 6 -20 -5 -14 60 -40
86 -34 21 4 14 -32 -11 -57 -17 -17 -32 -20 -106 -18 -61 1 -90 5 -100 16 -13
13 -14 43 -4 240 12 240 23 346 48 442 16 66 27 83 58 95 35 15 53 11 31 -5z
m408 1 c28 -12 35 -22 49 -72 31 -115 57 -382 57 -595 0 -121 5 -115 -93 -125
-54 -5 -65 -3 -89 16 -27 20 -42 80 -17 65 5 -4 24 -1 40 5 21 9 28 18 24 30
-3 9 1 23 10 30 26 22 48 116 40 175 -4 34 -2 55 4 60 17 10 13 22 -9 28 -11
3 -20 12 -20 20 0 8 -15 60 -34 116 -20 60 -30 103 -24 107 5 3 2 14 -7 24 -9
10 -15 29 -13 42 2 19 10 23 46 26 50 4 54 16 12 37 -51 26 -33 35 24 11z
m-42 -266 c20 -63 37 -122 38 -131 0 -9 -45 -48 -107 -92 l-107 -75 -86 59
c-47 32 -98 69 -113 81 l-28 23 41 128 41 128 141 -3 142 -3 38 -115z m-325
-225 c43 -31 88 -64 101 -73 l23 -17 -72 -43 c-69 -42 -72 -42 -92 -25 -31 28
-47 77 -47 148 0 36 2 65 4 65 3 0 40 -25 83 -55z m375 -62 c-10 -49 -44 -113
-60 -113 -4 0 -38 20 -75 43 l-68 43 98 71 98 71 9 -30 c6 -20 6 -49 -2 -85z
m-169 -78 l52 -35 -109 0 c-60 0 -107 3 -104 6 11 11 93 62 101 63 4 1 31 -15
60 -34z"/>
</g>
</svg>
